# xmcd
#
# Track frame offsets: 
#        150
#        1050
#        11602
#        24070
#        33092
#        48422
#        57360
#        68947
#        86495
#        99520
#        110292
#        126730
#        139500
#
# Disc length: 1999 seconds
#
# Revision: 0
# Processed by: cddbd v1.5.2PL0 Copyright (c) Steve Scherf et al.
# Submitted via: ExactAudioCopy v0.95b4
#
DISCID=9b07cd0d
DTITLE=Don Reno and Red Smiley - Together Again
DYEAR=2006
DGENRE=Bluegrass
TTITLE0=Intro
TTITLE1=Highway 52
TTITLE2=Somewhere, Someday Again
TTITLE3=A Dime Looks Like A Wagon Wheel
TTITLE4=Emotions
TTITLE5=Buck Ryan Rag
TTITLE6=Flowers Are Like People
TTITLE7=Mule Skinner Blues
TTITLE8=Could I Stop Loving You
TTITLE9=Riverdale Flash
TTITLE10=Soldier's Last Letter
TTITLE11=True Or False
TTITLE12=Shine, Hallelujuh, Shine
EXTD=
EXTT0=
EXTT1=
EXTT2=
EXTT3=
EXTT4=
EXTT5=
EXTT6=
EXTT7=
EXTT8=
EXTT9=
EXTT10=
EXTT11=
EXTT12=
PLAYORDER=
